<svg id="Calque_1" data-name="Calque 1" xmlns="http://www.w3.org/2000/svg" viewBox="0 0 174.33 119.52"><defs><style>.cls-1{fill:#4e9d53;}.cls-2{fill:#84a83e;}.cls-3{fill:#bcd587;}.cls-4{fill:#0f1310;}.cls-5{fill:#7eb680;}.cls-6{fill:#fff;}.cls-7,.cls-8{fill:#1d1d1b;}.cls-8{font-size:4.2px;font-family:Garet-Heavy, Garet;font-weight:800;}.cls-9{letter-spacing:-0.02em;}.cls-10{letter-spacing:-0.01em;}</style></defs><path class="cls-1" d="M81.34-20.64a.21.21,0,0,0-.19.16A.18.18,0,0,0,81.34-20.64Z" transform="translate(-30.8 20.64)"/><path class="cls-2" d="M61.55,27.12a25,25,0,0,1,2.82-1.75c-1.76-.52-3.16-1.47-4.78-1.9a8.32,8.32,0,0,0,1.21,2.7A2.3,2.3,0,0,0,61.55,27.12Z" transform="translate(-30.8 20.64)"/><path class="cls-3" d="M61.55,27.12a2.3,2.3,0,0,1-.75-.95,8.32,8.32,0,0,1-1.21-2.7c-.33-.11-.42.06-.43.36A9.13,9.13,0,0,0,59.32,26,26.89,26.89,0,0,0,60,28.69Z" transform="translate(-30.8 20.64)"/><path class="cls-4" d="M91.92,82.72s.07,0,.11,0A8,8,0,0,1,94,82,2.07,2.07,0,0,1,96.5,83.7a3.41,3.41,0,0,1,0,1.15,7.1,7.1,0,0,1-1.71,3.21A17,17,0,0,1,87.43,93a4.81,4.81,0,0,1-2,.27,1.91,1.91,0,0,1-1.87-1.87,8.61,8.61,0,0,1,0-1.9c.12-1,.26-1.9.3-2.85a8.84,8.84,0,0,0-.55-3.81A4.93,4.93,0,0,0,82,80.91,26.15,26.15,0,0,1,79.82,83,6.52,6.52,0,0,1,78,84.15a.37.37,0,0,0-.27.41,4.67,4.67,0,0,1-1.09,3.16A13.18,13.18,0,0,1,74.36,90a24.07,24.07,0,0,1-3.54,2.21c-.14.07-.33.09-.37.29l.1,0a19.62,19.62,0,0,1,5.63,2.93,4.15,4.15,0,0,1,1.08,1,1.24,1.24,0,0,1-.4,1.86,3,3,0,0,1-1.13.4,14.78,14.78,0,0,1-2.66.14A51.81,51.81,0,0,1,67,98.3c-1-.14-2.09-.3-3.14-.47A3.35,3.35,0,0,1,61,95.47c-.06-.18-.12-.35-.17-.53a17.59,17.59,0,0,1-.51-4.34,3.91,3.91,0,0,1,.93-2.49c.44-.55.91-1.08,1.36-1.62.1-.12.26-.21.27-.42-.5.1-1,.2-1.48.28a33.35,33.35,0,0,1-5.47.33,40.65,40.65,0,0,1-13.07-2.24A24.85,24.85,0,0,1,32,77.23c-.33-.38-.66-.76-1-1.15-.16-.2-.31-.44-.14-.69a.82.82,0,0,1,.7-.42,2.07,2.07,0,0,1,.5,0,2.79,2.79,0,0,1,.4.07.47.47,0,0,0,.63-.29c.25-.48.53-.94.8-1.4a3,3,0,0,1,.44-.61,1,1,0,0,1,1.43-.06,2.57,2.57,0,0,1,.28.29,11.31,11.31,0,0,1,1.43,2.06.38.38,0,0,0,.39.24c1.11,0,2.21-.14,3.31-.26.23,0,.36-.11.37-.37s.07-.64.09-1,.06-.87.1-1.31a.86.86,0,0,1,1.31-.75l.22.11a14.71,14.71,0,0,1,2.63,1.93.44.44,0,0,0,.53.11c.76-.29,1.5-.6,2.22-1,.41-.21.41-.21.29-.64a17.46,17.46,0,0,1-.49-1.79,1.11,1.11,0,0,1,1.25-1.39l.35,0a14.87,14.87,0,0,1,2.86.75.42.42,0,0,0,.5-.08c.45-.4.89-.81,1.33-1.22.2-.19.19-.33,0-.55a10.64,10.64,0,0,1-1.1-2,2.55,2.55,0,0,1-.19-.72,1,1,0,0,1,1-1.19,2.75,2.75,0,0,1,.5,0,14.12,14.12,0,0,1,2.34.29c.41.08.41.09.62-.29.13-.23.27-.46.4-.7s.19-.32-.1-.56a10.58,10.58,0,0,1-2-2.13,1.08,1.08,0,0,1,.61-1.81,13.85,13.85,0,0,1,3.48-.74c.24,0,.32-.1.36-.32a3.23,3.23,0,0,0,0-1.2,9.25,9.25,0,0,0-1-2.77.54.54,0,0,0-.58-.34c-.89,0-1.78,0-2.67,0a3.58,3.58,0,0,1-1.33-.23,1,1,0,0,1-.58-1.48,3.25,3.25,0,0,1,.37-.59A17.71,17.71,0,0,1,57,48.93a.37.37,0,0,0,.12-.47,13.11,13.11,0,0,1-.64-2.22.68.68,0,0,0-.62-.65,4,4,0,0,1-.67-.21,8.71,8.71,0,0,1-2.41-1.23,2.94,2.94,0,0,1-.64-.63,1.23,1.23,0,0,1,.06-1.58,2.83,2.83,0,0,1,.65-.55,12.75,12.75,0,0,1,2.78-1.28c.42-.13.41-.13.46-.57s.12-1.1.21-1.64a.67.67,0,0,0-.31-.76,12.31,12.31,0,0,1-1.16-.89,7.59,7.59,0,0,1-1.37-1.46,4.21,4.21,0,0,1-.49-.88,1.31,1.31,0,0,1,.63-1.75,3.19,3.19,0,0,1,.74-.3,16.35,16.35,0,0,1,3.6-.68.5.5,0,0,0,.49-.34,10.35,10.35,0,0,1,.89-1.46c.22-.28.35-.54.12-.89a1.44,1.44,0,0,1-.15-.47,12.88,12.88,0,0,1-.55-3.32,2.64,2.64,0,0,1,.1-.79A1.19,1.19,0,0,1,60,23a2.2,2.2,0,0,1,.88.18,14.11,14.11,0,0,1,3.26,1.66.73.73,0,0,0,.91.05,3,3,0,0,1,1-.37c.57-.14,1.15-.25,1.72-.37a26.56,26.56,0,0,1,6.35-.6c2.28.08,4.56.15,6.83.35a52.9,52.9,0,0,1,7.4,1.13,23.17,23.17,0,0,1,6.38,2.38,11.66,11.66,0,0,1,5.37,6.29c.06.16.06.36.25.48a1.1,1.1,0,0,1,1.35.06.81.81,0,0,1,.44.84c-.29-.16-.52-.46-.92-.42a3.47,3.47,0,0,1,.15.51c.06.38,0,.78-.34,1-.22.12-.22.23-.19.43a21.61,21.61,0,0,1,.28,2.55,38.44,38.44,0,0,1-.06,3.87,21.82,21.82,0,0,1-.66,4.62,7.52,7.52,0,0,1-5.11,5.61c-.86.29-1.72.56-2.6.77-.13,0-.28,0-.34.17a7.14,7.14,0,0,1-1.61,2A7.5,7.5,0,0,1,87,58.35c-.3.06-.33.19-.29.45.21,1.51.33,3,.39,4.55a.75.75,0,0,0,.29.55l2.65,2.47a9.36,9.36,0,0,1,1.08,1.19,4.53,4.53,0,0,1,.8,1.67,2.61,2.61,0,0,1-1.5,3,1.53,1.53,0,0,1-2.08-.76,2.88,2.88,0,0,1-.3-1.26c0-.13,0-.28-.06-.38-.33-.32-.68-.62-1.08-1a32.81,32.81,0,0,1-1,4.89c4.69.89,6.52,5.26,6,8.87C91.89,82.63,91.85,82.69,91.92,82.72ZM36.07,75.37c.08,0,.17,0,.21-.08-.34-.53-.76-1-1.16-1.54a10.68,10.68,0,0,0-.87,1.47.66.66,0,0,0,.45.06Zm8.84-1.06a6.48,6.48,0,0,0-1-.66c-.32-.24-.65-.45-1-.71l-.15,1.8a.4.4,0,0,0,.42,0,5,5,0,0,0,1.42-.32A.61.61,0,0,0,44.91,74.31Zm7.21-3.58-2.48-.49c.09.66.35,1.21.48,1.79a.6.6,0,0,0,.43-.22A5.32,5.32,0,0,0,51.71,71,.86.86,0,0,0,52.12,70.73Zm4.93-5.19a8.43,8.43,0,0,0-2.34-.18,9.84,9.84,0,0,0,1.06,2,.79.79,0,0,0,.34-.39,5.48,5.48,0,0,0,.71-1A.78.78,0,0,0,57.05,65.54ZM57.23,60A10.49,10.49,0,0,0,59,62a3.28,3.28,0,0,0,.42-1l.79-1.77-2.46.66C57.57,59.88,57.43,60,57.23,60Zm-1.55-7.81a15.87,15.87,0,0,0,3.15.14,2.13,2.13,0,0,0-.36-.74l-.78-1.75a18.77,18.77,0,0,0-1.47,1.7A2.37,2.37,0,0,0,55.68,52.22Zm4.38,33.09a12.13,12.13,0,0,0,2-.09c.49,0,1-.12,1.49-.16a.55.55,0,0,0,.48-.28,2.54,2.54,0,0,0,.5-1.14A.93.93,0,0,0,64.6,83l-1.41.93A33.33,33.33,0,0,1,60.06,85.31ZM60,24.51a6.85,6.85,0,0,0,.11,1.5c.11.6.25,1.2.44,1.87l1.1-1.08a17.49,17.49,0,0,1,2-1.22c-1.22-.36-2.19-1-3.31-1.31C60,24.19,60,24.31,60,24.51ZM56,41.19a16.42,16.42,0,0,0-2.39,1.17c-.79.42-.51.53-.06.87a7.44,7.44,0,0,0,2.56,1.2,1.16,1.16,0,0,0-.06-.74Zm1.87-9.11-.64.21c-.73.25-1.48.41-2.22.61a1.55,1.55,0,0,0-.51.18c-.48.18-.51.25-.28.67a6,6,0,0,0,1.22,1.44,12,12,0,0,0,1.16.91,5.09,5.09,0,0,0,.3-1.16C57.2,34,57.48,33.07,57.88,32.08ZM76.79,66.3c-.11-.21-.22-.41-.32-.63s-.21-.43,0-.6.41,0,.59.14a2.75,2.75,0,0,0,.55.34,27,27,0,0,1,1-4.86,6.87,6.87,0,0,1,1-1.56.82.82,0,0,0-.42-.05c-1.36,0-2.71.05-4.07,0a18.41,18.41,0,0,1-4.1-.63c-.37-.1-.74-.24-.84-.69.24-.43.4-.52.89-.44.71.12,1.4.28,2.11.39a25.65,25.65,0,0,0,4.55.22,1.29,1.29,0,0,0,.19,0,2.43,2.43,0,0,0,.85,0q1.38,0,2.76,0a26.86,26.86,0,0,0,5.13-.64,6.52,6.52,0,0,0,3-1.53,11,11,0,0,0,1.26-1.29.88.88,0,0,0-.55,0,45.42,45.42,0,0,1-9.46.6h-.1c-1.31,0-2.61-.12-3.91-.24A23.48,23.48,0,0,1,73,54.17a6.94,6.94,0,0,1-4.12-2.92,20,20,0,0,1-1.48-2.68,1.65,1.65,0,0,1-.18-.57.49.49,0,0,1,.23-.52.51.51,0,0,1,.56.1,3.79,3.79,0,0,1,.55.65,17.08,17.08,0,0,0,1.36,2.44,5.81,5.81,0,0,0,3.8,2.46,1,1,0,0,0,.3,0,3.31,3.31,0,0,0,1.25.2,4,4,0,0,0,1.19.17c1.1.1,2.2.17,3.31.23.94,0,1.87.07,2.81.08a51.21,51.21,0,0,0,7.11-.54,27.39,27.39,0,0,0,4-.75,17.31,17.31,0,0,0,2.22-.81,5.61,5.61,0,0,0,2.69-2.62,10.81,10.81,0,0,0,1-3.3,33.66,33.66,0,0,0,.28-7.37,13.35,13.35,0,0,0-1.84-6.26,10.85,10.85,0,0,0-4.29-3.91,23.57,23.57,0,0,0-6.3-2.19,50.65,50.65,0,0,0-6.5-.95c-2-.16-3.95-.29-5.93-.31a3.69,3.69,0,0,0-1.24,0c-.95,0-1.89.16-2.84.24s-2.13.2-3.18.38a.72.72,0,0,0-.38.1,3,3,0,0,0-1.15.27,5.16,5.16,0,0,1-.85.25,10.46,10.46,0,0,0-6.08,5.62A20.11,20.11,0,0,0,57.66,37a26,26,0,0,0-.5,4.49,20,20,0,0,0,2.36,9.67c.45.88.93,1.74,1.4,2.61a10.06,10.06,0,0,1,.81,2.05,5,5,0,0,1-.11,3c-.37,1-.78,2-1.25,3-.59,1.22-1.22,2.43-1.86,3.62a20.41,20.41,0,0,1-9,8.34,24.36,24.36,0,0,1-8,2.45,37.2,37.2,0,0,1-7.68.21c-.3,0-.59.2-.9,0a1.85,1.85,0,0,0,.61.69,17.41,17.41,0,0,0,2.34,2.2,24.42,24.42,0,0,0,8.35,4.31,39.36,39.36,0,0,0,7.35,1.61,40.08,40.08,0,0,0,5.58.24,8.35,8.35,0,0,0,1.91-.41A17.92,17.92,0,0,0,63,83.45a11.49,11.49,0,0,0,1.32-.91.4.4,0,0,0,.14-.55,4.94,4.94,0,0,0-1.74-2.17c-.32-.22-.66-.4-1-.6a2.49,2.49,0,0,1-.38-.25.38.38,0,0,1,.09-.66,1.51,1.51,0,0,1,.79-.08,5.87,5.87,0,0,1,2.93,2.63A3.91,3.91,0,0,1,65,85.39a20.88,20.88,0,0,1-2.25,2.71,4.18,4.18,0,0,0-1.19,3.77c.12.78.18,1.56.33,2.34a5.27,5.27,0,0,0,.29,1,2.13,2.13,0,0,0,1.66,1.44,10.26,10.26,0,0,0,1.74.24,11.86,11.86,0,0,0,1.88.29c1.31.17,2.63.3,3.94.43a3.53,3.53,0,0,0,.46,0,12.42,12.42,0,0,0,3.8-.08c.24,0,.56,0,.62-.32s-.23-.39-.4-.54a17.5,17.5,0,0,0-4.31-2.55c-.72-.3-1.46-.59-2.17-.91a.65.65,0,0,0-.66,0,2.78,2.78,0,0,1-.84.33.47.47,0,0,1-.54-.17.49.49,0,0,1,.09-.6,3.07,3.07,0,0,1,.84-.64l2.56-1.38a16.89,16.89,0,0,0,4.11-3c.24-.25.47-.52.7-.79a3.6,3.6,0,0,0,.78-3.33,18.56,18.56,0,0,0-1.83-4.61C74,78,73.4,77,72.8,75.92a.66.66,0,0,0-.14-.15h0a.22.22,0,0,0-.11-.23l-.42-1c-.06-.16-.14-.33,0-.47s.35,0,.49.1a4.64,4.64,0,0,1,.5.49,15,15,0,0,1,1.32,1.84,2.12,2.12,0,0,0,.15.21,1.17,1.17,0,0,0,.45-.4,6.31,6.31,0,0,0,1.25-2.7c.25-1.06.31-2.15.53-3.22,0-.23-.13-.33-.25-.45A6.38,6.38,0,0,1,75,67.36c-.08-.27-.13-.55-.19-.83a.78.78,0,0,1,0-.4c.09-.32.2-.35.45-.13a.93.93,0,0,1,.13.15c.43.69.84,1.4,1.28,2.09a5.78,5.78,0,0,0,2.07,1.92c.67.37,1.36.72,2,1.07.26.14.26.14.33-.22a.89.89,0,0,0,.23-.34c.41-.28.59-.11.72.39s0,1.07.13,1.59a1.63,1.63,0,0,0,.32.83c.29.33.4.34.66.06a2.17,2.17,0,0,0,.35-2.26,1.37,1.37,0,0,0-.63-.63,8.1,8.1,0,0,0-.92-.38,9,9,0,0,1-3.33-2,23.49,23.49,0,0,1-1.77-1.83h0A.14.14,0,0,0,76.79,66.3Zm14.3,23.39a7.34,7.34,0,0,0,1.55-1.17,8.75,8.75,0,0,0,2.44-3.21,2.83,2.83,0,0,0,.24-1.37.82.82,0,0,0-.89-.82,2.34,2.34,0,0,0-1,.22A21.72,21.72,0,0,0,91,84.72c-.23.14-.46.28-.7.4s-.39.25-.55,0,0-.38.13-.55a3.91,3.91,0,0,1,.64-.76,3.69,3.69,0,0,1,.41-.38c.17-.12.16-.22.07-.41a2.54,2.54,0,0,1-.15-1.13,8.77,8.77,0,0,0-.2-2.45A5.91,5.91,0,0,0,87,75.25l-1.16-.49c-.21-.09-.29,0-.36.18-.26.77-.63,1.51-1,2.26s-.93,1.56-1.41,2.33l-.21.21c-.17.17-.18.3,0,.49A7.11,7.11,0,0,1,85,85.05a19.54,19.54,0,0,1-.25,4.25,6.7,6.7,0,0,0-.07,2c.08.5.23.66.74.73a4.35,4.35,0,0,0,2-.29,6,6,0,0,0,.88-.44A10.42,10.42,0,0,0,91,89.78a.11.11,0,0,0,.12-.1ZM77.53,83.2a.67.67,0,0,0,.18-.07c.74-.6,1.5-1.18,2.22-1.8a16.22,16.22,0,0,0,4.79-7.55A25.59,25.59,0,0,0,85.86,68,35.55,35.55,0,0,0,86,64.46a45.86,45.86,0,0,0-.4-5.36c-.06-.44-.09-.46-.5-.39a25.81,25.81,0,0,1-4.3.35.88.88,0,0,0-.81.38,4.89,4.89,0,0,0-.71,1.15,7.64,7.64,0,0,0-.68,2.19,27.24,27.24,0,0,0-.43,3,.7.7,0,0,0,.23.67c.44.39.85.81,1.28,1.2a7.48,7.48,0,0,0,2.63,1.53,4.5,4.5,0,0,1,2,1.12,3.51,3.51,0,0,1,.54,1.43,3.39,3.39,0,0,1-.63,2.41,1.7,1.7,0,0,1-1.81.78A2.48,2.48,0,0,1,81,72.76a.54.54,0,0,0-.46-.53,11.27,11.27,0,0,1-2.8-1.34l-.42-.27c-.06.5-.11.95-.17,1.4a14.6,14.6,0,0,1-.63,2.69,5.58,5.58,0,0,1-1.33,2.21c-.3.31-.34.26-.1.67.58,1,1.07,2,1.56,3A19.84,19.84,0,0,1,77.53,83.2Zm11-14.54c.17-.14.35-.31.58-.17s.19.37.19.59a2.52,2.52,0,0,1-.08.55,2.15,2.15,0,0,0,.08,1.18c.17.46.44.56.86.33a1.52,1.52,0,0,0,.7-1.77,3.86,3.86,0,0,0-.8-1.44,18.17,18.17,0,0,0-1.73-1.67,12.8,12.8,0,0,1-1.14-1.17c0,.84-.08,1.56-.12,2.29a.25.25,0,0,0,.13.25,3.8,3.8,0,0,1,1.21,1.09Z" transform="translate(-30.8 20.64)"/><path class="cls-5" d="M69.69,58a.34.34,0,0,0-.06.49,1.66,1.66,0,0,0,.63.63A10.75,10.75,0,0,0,74,60.3l2,.26a19.22,19.22,0,0,0,2,0c.19,0,.41-.07.57.1a27,27,0,0,0-1,4.86,2.75,2.75,0,0,1-.55-.34c-.18-.11-.39-.3-.59-.14s-.08.41,0,.6.21.42.32.63a.13.13,0,0,0,.09.13h0a.63.63,0,0,0,.15.46,12.39,12.39,0,0,0,3,3.15,4.74,4.74,0,0,0,1.3.63.89.89,0,0,1-.23.34,11.16,11.16,0,0,1-3.89-2.61,8.9,8.9,0,0,1-1.17-1.62c-.15-.26-.26-.6-.65-.63a.93.93,0,0,0-.13-.15c-.25-.22-.36-.19-.45.13a.78.78,0,0,0,0,.4c.06.28.11.56.19.83a6.38,6.38,0,0,0,1.6,2.58c.12.12.3.22.25.45-.22,1.07-.28,2.16-.53,3.22a6.31,6.31,0,0,1-1.25,2.7,1.17,1.17,0,0,1-.45.4,2.12,2.12,0,0,1-.15-.21,15,15,0,0,0-1.32-1.84,4.64,4.64,0,0,0-.5-.49c-.14-.11-.3-.25-.49-.1s-.09.31,0,.47l.42,1c0,.1,0,.19.11.23h0a1.16,1.16,0,0,0,.11.64,22.66,22.66,0,0,1,1.13,4.2,6.62,6.62,0,0,1,.16,1.33c0,.29.1.57.09.85A14,14,0,0,1,74,84.23a6.81,6.81,0,0,1-1.63,3.38,14.67,14.67,0,0,1-2.16,2c-.63.52-1.29,1-2,1.47a9.67,9.67,0,0,1-1.65,1,1.18,1.18,0,0,0-.81,1.09,1.54,1.54,0,0,0,.73,1.49,15.59,15.59,0,0,0,2.81,1.31c.59.21,1.18.4,1.76.59a1.91,1.91,0,0,1,.8.5c.29.31.29.3-.05.6a3.53,3.53,0,0,1-.46,0c-1.31-.13-2.63-.26-3.94-.43a11.86,11.86,0,0,1-1.88-.29A5.88,5.88,0,0,1,64,96.17a2.8,2.8,0,0,1-1.15-1.66,22.81,22.81,0,0,1-.49-3.07A4.09,4.09,0,0,1,63.63,88a20.6,20.6,0,0,0,1.78-1.84c.18-.23.36-.45.52-.69a3.85,3.85,0,0,0,.1-4.32,8.08,8.08,0,0,0-2.69-2.67,1.44,1.44,0,0,0-1.14-.26,1.51,1.51,0,0,0-.79.08.38.38,0,0,0-.09.66,2.49,2.49,0,0,0,.38.25c.33.2.67.38,1,.6A4.94,4.94,0,0,1,64.43,82a.4.4,0,0,1-.14.55,11.49,11.49,0,0,1-1.32.91,17.92,17.92,0,0,1-3.9,1.61,8.35,8.35,0,0,1-1.91.41,40.08,40.08,0,0,1-5.58-.24,39.36,39.36,0,0,1-7.35-1.61,24.42,24.42,0,0,1-8.35-4.31,17.41,17.41,0,0,1-2.34-2.2,11,11,0,0,1,1.4.1,33.32,33.32,0,0,0,6.77-.2,26.37,26.37,0,0,0,9.18-3,24.23,24.23,0,0,0,7.93-6.84A27.08,27.08,0,0,0,62,61.08a13.71,13.71,0,0,0,1-3.12,4.57,4.57,0,0,0-.31-2.61A31.1,31.1,0,0,0,60.87,52a20.76,20.76,0,0,1-2.54-6.85A20.15,20.15,0,0,1,58,39.85a16.45,16.45,0,0,1,5.51-11.8A13,13,0,0,1,66.52,26c.12-.29.64-.18.9-.41a.72.72,0,0,1,.38-.1c1-.18,2.12-.29,3.18-.38s1.89-.24,2.84-.24a21,21,0,0,0,2.24.23c1.1.07,2.2.12,3.29.26s1.92.26,2.87.45a31.7,31.7,0,0,1,5.62,1.64A3.11,3.11,0,0,1,89.53,29a26.73,26.73,0,0,1,2,5.62c.24.94.49,1.88.65,2.83.07.43.1.86.17,1.29.11.69.07,1.4.16,2.09a15.22,15.22,0,0,1,0,1.91,22.42,22.42,0,0,1-.39,4.48,3.27,3.27,0,0,1-.45,1.16,5.89,5.89,0,0,1-2,2A17.37,17.37,0,0,1,84,52.45c-.83.17-1.67.3-2.51.45a11.06,11.06,0,0,1-1.29.14,8,8,0,0,1-1.2.1l-.89-.07a8.71,8.71,0,0,0-2.74.21l-.07.07a3.31,3.31,0,0,1-1.25-.2c-.46-.28-.9-.57-1.37-.83A7,7,0,0,1,70,49.66a6.26,6.26,0,0,0-.81-1.15.68.68,0,0,0-.61-.28,3.79,3.79,0,0,0-.55-.65.51.51,0,0,0-.56-.1.49.49,0,0,0-.23.52,1.65,1.65,0,0,0,.18.57,20,20,0,0,0,1.48,2.68A6.94,6.94,0,0,0,73,54.17a23.48,23.48,0,0,0,3.82.57c1.3.12,2.6.19,3.91.24A.61.61,0,0,1,80.88,56a4.5,4.5,0,0,1-1.35,1,10.36,10.36,0,0,1-1.23.53c-.17.07-.35.12-.43.32a1.29,1.29,0,0,1-.19,0,25.65,25.65,0,0,1-4.55-.22c-.71-.11-1.4-.27-2.11-.39-.49-.08-.65,0-.89.44A.52.52,0,0,0,69.69,58Zm.66-19.69a3.51,3.51,0,0,0,1.17,1.94c.06.15.13.3.19.46a2.69,2.69,0,0,0,2,1.67.67.67,0,0,0,.49.31,2.31,2.31,0,0,0,2.43-.92,5.92,5.92,0,0,0,1.09-3.42,7.69,7.69,0,0,0-.78-3.69,4.07,4.07,0,0,0-2.11-2.19,1.53,1.53,0,0,0-1.44,0,2.43,2.43,0,0,0-1.71,1.36A4.88,4.88,0,0,0,70.35,38.27Z" transform="translate(-30.8 20.64)"/><path class="cls-1" d="M75.06,24.82c2,0,4,.15,5.93.31a50.65,50.65,0,0,1,6.5.95,23.57,23.57,0,0,1,6.3,2.19,10.85,10.85,0,0,1,4.29,3.91,13.35,13.35,0,0,1,1.84,6.26,33.66,33.66,0,0,1-.28,7.37,10.81,10.81,0,0,1-1,3.3,5.61,5.61,0,0,1-2.69,2.62,17.31,17.31,0,0,1-2.22.81,27.39,27.39,0,0,1-4,.75,51.21,51.21,0,0,1-7.11.54c-.94,0-1.87,0-2.81-.08-1.11-.06-2.21-.13-3.31-.23a4,4,0,0,1-1.19-.17l.07-.07a8.71,8.71,0,0,1,2.74-.21l.89.07a8,8,0,0,0,1.2-.1,11.06,11.06,0,0,0,1.29-.14c.84-.15,1.68-.28,2.51-.45a17.37,17.37,0,0,0,5.66-2.11,5.89,5.89,0,0,0,2-2,3.27,3.27,0,0,0,.45-1.16,22.42,22.42,0,0,0,.39-4.48,15.22,15.22,0,0,0,0-1.91c-.09-.69,0-1.4-.16-2.09-.07-.43-.1-.86-.17-1.29-.16-1-.41-1.89-.65-2.83a26.73,26.73,0,0,0-2-5.62,3.11,3.11,0,0,0-1.69-1.56,31.7,31.7,0,0,0-5.62-1.64c-1-.19-1.91-.33-2.87-.45s-2.19-.19-3.29-.26a21,21,0,0,1-2.24-.23A3.69,3.69,0,0,1,75.06,24.82ZM94.29,36.34a1.08,1.08,0,0,0,.93.8,1.06,1.06,0,0,0,1.08-.59,1.75,1.75,0,0,1,.44-.58.52.52,0,0,0,.09-.69,1.43,1.43,0,0,0-1.22-.84,1.77,1.77,0,0,0-1.21.24,3.26,3.26,0,0,0-1.22,1.43,1.1,1.1,0,0,0-.09.54c0,.12,0,.24.15.29s.22,0,.29-.15l.24-.43a2.73,2.73,0,0,1,.39-.59C94.21,36,94.23,36.17,94.29,36.34Z" transform="translate(-30.8 20.64)"/><path class="cls-6" d="M33.54,77.11a11,11,0,0,1,1.4.1,33.32,33.32,0,0,0,6.77-.2,26.37,26.37,0,0,0,9.18-3,24.23,24.23,0,0,0,7.93-6.84A27.08,27.08,0,0,0,62,61.08a13.71,13.71,0,0,0,1-3.12,4.57,4.57,0,0,0-.31-2.61A31.1,31.1,0,0,0,60.87,52a20.76,20.76,0,0,1-2.54-6.85A20.15,20.15,0,0,1,58,39.85a16.45,16.45,0,0,1,5.51-11.8A13,13,0,0,1,66.52,26c.6-.22,1.16-.44,1.08-.49a15,15,0,0,0-2.18.6,10.46,10.46,0,0,0-6.08,5.62A20.11,20.11,0,0,0,57.66,37a26,26,0,0,0-.5,4.49,20,20,0,0,0,2.36,9.67c.45.88.93,1.74,1.4,2.61a10.06,10.06,0,0,1,.81,2.05,5,5,0,0,1-.11,3c-.37,1-.78,2-1.25,3-.59,1.22-1.22,2.43-1.86,3.62a20.41,20.41,0,0,1-9,8.34,24.36,24.36,0,0,1-8,2.45,37.2,37.2,0,0,1-7.68.21c-.3,0-.59.2-.9,0A1.85,1.85,0,0,0,33.54,77.11Z" transform="translate(-30.8 20.64)"/><path class="cls-5" d="M84.55,77.2c-.44.8-.93,1.56-1.41,2.33a2.16,2.16,0,0,1,.83.63,7.45,7.45,0,0,1,1.67,3,10.91,10.91,0,0,1,.13,4.48,17.77,17.77,0,0,0-.24,3c0,1,.29,1.2,1.24,1,.52-.1,1-.24,1.55-.37A10.42,10.42,0,0,0,91,89.78a.15.15,0,0,1,.12-.1h0c0-.19.12-.31.21-.44a8.15,8.15,0,0,0,1.34-3.2,1.37,1.37,0,0,0,0-.45c0-.27-.12-.33-.4-.26L91,85.67a7,7,0,0,1-1.51.29c-.8,0-1-.61-.66-1.16.12-.2.26-.39.39-.59a.78.78,0,0,0,.1-.7c-.15-.46-.25-.93-.38-1.4A8.21,8.21,0,0,0,88.16,80,5.71,5.71,0,0,0,84.55,77.2Z" transform="translate(-30.8 20.64)"/><path class="cls-1" d="M72.66,75.77a1.16,1.16,0,0,0,.11.64,22.66,22.66,0,0,1,1.13,4.2,6.62,6.62,0,0,1,.16,1.33c0,.29.1.57.09.85A14,14,0,0,1,74,84.23a6.81,6.81,0,0,1-1.63,3.38,14.67,14.67,0,0,1-2.16,2c-.63.52-1.29,1-2,1.47a9.67,9.67,0,0,1-1.65,1,1.18,1.18,0,0,0-.81,1.09,1.54,1.54,0,0,0,.73,1.49,15.59,15.59,0,0,0,2.81,1.31c.59.21,1.18.4,1.76.59a1.91,1.91,0,0,1,.8.5c.29.31.29.3-.05.6a12.42,12.42,0,0,0,3.8-.08c.24,0,.56,0,.62-.32s-.23-.39-.4-.54a17.5,17.5,0,0,0-4.31-2.55c-.72-.3-1.46-.59-2.17-.91a.65.65,0,0,0-.66,0,2.78,2.78,0,0,1-.84.33.47.47,0,0,1-.54-.17.49.49,0,0,1,.09-.6,3.07,3.07,0,0,1,.84-.64l2.56-1.38a16.89,16.89,0,0,0,4.11-3c.24-.25.47-.52.7-.79a3.6,3.6,0,0,0,.78-3.33,18.56,18.56,0,0,0-1.83-4.61C74,78,73.4,77,72.8,75.92A.66.66,0,0,0,72.66,75.77Z" transform="translate(-30.8 20.64)"/><path class="cls-3" d="M79.31,60.59a7.64,7.64,0,0,0-.68,2.19,27.24,27.24,0,0,0-.43,3,.7.7,0,0,0,.23.67c.44.39.85.81,1.28,1.2a7.48,7.48,0,0,0,2.63,1.53,4.5,4.5,0,0,1,2,1.12,25.1,25.1,0,0,0,.52-5.67c0-.32-.09-.62-.09-.94A23.9,23.9,0,0,0,84.43,61a.3.3,0,0,0-.33-.3,7.38,7.38,0,0,0-1,0,6.28,6.28,0,0,1-1.5,0C80.8,60.72,80.05,60.65,79.31,60.59Z" transform="translate(-30.8 20.64)"/><path class="cls-2" d="M79.31,60.59c.74.06,1.49.13,2.24.17a6.28,6.28,0,0,0,1.5,0,7.38,7.38,0,0,1,1,0,.3.3,0,0,1,.33.3,23.9,23.9,0,0,1,.32,2.68c0,.32.08.62.09.94a25.1,25.1,0,0,1-.52,5.67,3.51,3.51,0,0,1,.54,1.43,3.39,3.39,0,0,1-.63,2.41,1.7,1.7,0,0,1-1.81.78,4.42,4.42,0,0,1-.7,1.14,16.7,16.7,0,0,1-3.39,3.58,6,6,0,0,1-1.65,1,19.84,19.84,0,0,1,.85,2.57.67.67,0,0,0,.18-.07c.74-.6,1.5-1.18,2.22-1.8a16.22,16.22,0,0,0,4.79-7.55A25.59,25.59,0,0,0,85.86,68,35.55,35.55,0,0,0,86,64.46a45.86,45.86,0,0,0-.4-5.36c-.06-.44-.09-.46-.5-.39a25.81,25.81,0,0,1-4.3.35.88.88,0,0,0-.81.38A4.89,4.89,0,0,0,79.31,60.59Z" transform="translate(-30.8 20.64)"/><path class="cls-1" d="M84.55,77.2A5.71,5.71,0,0,1,88.16,80a8.21,8.21,0,0,1,.74,2.12c.13.47.23.94.38,1.4a.78.78,0,0,1-.1.7c-.13.2-.27.39-.39.59-.31.55-.14,1.17.66,1.16A7,7,0,0,0,91,85.67l1.31-.33c.28-.07.36,0,.4.26a1.37,1.37,0,0,1,0,.45,8.15,8.15,0,0,1-1.34,3.2c-.09.13-.25.25-.21.44a7.34,7.34,0,0,0,1.55-1.17,8.75,8.75,0,0,0,2.44-3.21,2.83,2.83,0,0,0,.24-1.37.82.82,0,0,0-.89-.82,2.34,2.34,0,0,0-1,.22A21.72,21.72,0,0,0,91,84.72c-.23.14-.46.28-.7.4s-.39.25-.55,0,0-.38.13-.55a3.91,3.91,0,0,1,.64-.76,3.69,3.69,0,0,1,.41-.38c.17-.12.16-.22.07-.41a2.54,2.54,0,0,1-.15-1.13,8.77,8.77,0,0,0-.2-2.45A5.91,5.91,0,0,0,87,75.25l-1.16-.49c-.21-.09-.29,0-.36.18C85.24,75.71,84.87,76.45,84.55,77.2Z" transform="translate(-30.8 20.64)"/><path class="cls-3" d="M76.68,80.63a6,6,0,0,0,1.65-1A16.7,16.7,0,0,0,81.72,76a4.42,4.42,0,0,0,.7-1.14A2.48,2.48,0,0,1,81,72.76a.54.54,0,0,0-.46-.53,11.27,11.27,0,0,1-2.8-1.34l-.42-.27c-.06.5-.11.95-.17,1.4a14.6,14.6,0,0,1-.63,2.69,5.58,5.58,0,0,1-1.33,2.21c-.3.31-.34.26-.1.67C75.7,78.58,76.19,79.6,76.68,80.63Z" transform="translate(-30.8 20.64)"/><path class="cls-1" d="M80.72,55A.61.61,0,0,1,80.88,56a4.5,4.5,0,0,1-1.35,1,10.36,10.36,0,0,1-1.23.53c-.17.07-.55.17-.62.36,0,0,.76,0,1,0q1.38,0,2.76,0a26.86,26.86,0,0,0,5.13-.64,6.52,6.52,0,0,0,3-1.53,11,11,0,0,0,1.26-1.29.88.88,0,0,0-.55,0,45.42,45.42,0,0,1-9.46.6Z" transform="translate(-30.8 20.64)"/><path class="cls-6" d="M65.57,96.9A5.88,5.88,0,0,1,64,96.17a2.8,2.8,0,0,1-1.15-1.66,22.81,22.81,0,0,1-.49-3.07A4.09,4.09,0,0,1,63.63,88a20.6,20.6,0,0,0,1.78-1.84c.18-.23.36-.45.52-.69a3.85,3.85,0,0,0,.1-4.32,8.08,8.08,0,0,0-2.69-2.67,1.44,1.44,0,0,0-1.14-.26,5.87,5.87,0,0,1,2.93,2.63A3.91,3.91,0,0,1,65,85.39a20.88,20.88,0,0,1-2.25,2.71,4.18,4.18,0,0,0-1.19,3.77c.12.78.18,1.56.33,2.34a5.27,5.27,0,0,0,.29,1,2.13,2.13,0,0,0,1.66,1.44A10.26,10.26,0,0,0,65.57,96.9Z" transform="translate(-30.8 20.64)"/><path class="cls-1" d="M70.13,57.77a.52.52,0,0,0-.44.19.34.34,0,0,0-.06.49,1.66,1.66,0,0,0,.63.63A10.75,10.75,0,0,0,74,60.3l2,.26a19.22,19.22,0,0,0,2,0c.19,0,.41-.07.57.1a6.87,6.87,0,0,1,1-1.56.82.82,0,0,0-.42-.05c-1.36,0-2.71.05-4.07,0a18.41,18.41,0,0,1-4.1-.63C70.6,58.36,70.23,58.22,70.13,57.77Z" transform="translate(-30.8 20.64)"/><path class="cls-6" d="M88.32,91.3c-.51.13-1,.27-1.55.37-1,.18-1.21,0-1.24-1a17.77,17.77,0,0,1,.24-3,10.91,10.91,0,0,0-.13-4.48,7.45,7.45,0,0,0-1.67-3,2.16,2.16,0,0,0-.83-.63l-.21.21c-.17.17-.18.3,0,.49A7.11,7.11,0,0,1,85,85.05a19.54,19.54,0,0,1-.25,4.25,6.7,6.7,0,0,0-.07,2c.08.5.23.66.74.73a4.35,4.35,0,0,0,2-.29A6,6,0,0,0,88.32,91.3Z" transform="translate(-30.8 20.64)"/><path class="cls-1" d="M88.38,68.72l.12-.06c.17-.14.35-.31.58-.17s.19.37.19.59a2.52,2.52,0,0,1-.08.55,2.15,2.15,0,0,0,.08,1.18c.17.46.44.56.86.33a1.52,1.52,0,0,0,.7-1.77,3.86,3.86,0,0,0-.8-1.44,18.17,18.17,0,0,0-1.73-1.67,12.8,12.8,0,0,1-1.14-1.17c0,.84-.08,1.56-.12,2.29a.25.25,0,0,0,.13.25A3.8,3.8,0,0,1,88.38,68.72Z" transform="translate(-30.8 20.64)"/><path class="cls-1" d="M76.88,66.43a.63.63,0,0,0,.15.46,12.39,12.39,0,0,0,3,3.15,4.74,4.74,0,0,0,1.3.63c.41-.28.59-.11.72.39a1.36,1.36,0,0,1,1,.71,1.18,1.18,0,0,1-.53,1.71c.29.33.4.34.66.06a2.17,2.17,0,0,0,.35-2.26,1.37,1.37,0,0,0-.63-.63,8.1,8.1,0,0,0-.92-.38,9,9,0,0,1-3.33-2A23.49,23.49,0,0,1,76.88,66.43Z" transform="translate(-30.8 20.64)"/><path class="cls-2" d="M56.91,34.94c.29-.93.57-1.87,1-2.86l-.64.21c-.73.25-1.48.41-2.22.61a1.55,1.55,0,0,0-.51.18.31.31,0,0,1,.11.21,1,1,0,0,0,.56.89A6.69,6.69,0,0,0,56.91,34.94Z" transform="translate(-30.8 20.64)"/><path class="cls-6" d="M74,53.15c-.46-.28-.9-.57-1.37-.83A7,7,0,0,1,70,49.66a6.26,6.26,0,0,0-.81-1.15.68.68,0,0,0-.61-.28,17.08,17.08,0,0,0,1.36,2.44,5.81,5.81,0,0,0,3.8,2.46A1,1,0,0,0,74,53.15Z" transform="translate(-30.8 20.64)"/><path class="cls-2" d="M56.06,43.69,56,41.19a16.42,16.42,0,0,0-2.39,1.17,1,1,0,0,0,.45.57A8.43,8.43,0,0,0,56.06,43.69Z" transform="translate(-30.8 20.64)"/><path class="cls-2" d="M63.19,83.94a33.33,33.33,0,0,1-3.13,1.37,12.13,12.13,0,0,0,2-.09c.49,0,1-.12,1.49-.16a.55.55,0,0,0,.48-.28,2.54,2.54,0,0,0,.5-1.14,1.65,1.65,0,0,0-.62.14A2.27,2.27,0,0,1,63.19,83.94Z" transform="translate(-30.8 20.64)"/><path class="cls-6" d="M81.12,71a11.16,11.16,0,0,1-3.89-2.61,8.9,8.9,0,0,1-1.17-1.62c-.15-.26-.26-.6-.65-.63.43.69.84,1.4,1.28,2.09a5.78,5.78,0,0,0,2.07,1.92c.67.37,1.36.72,2,1.07C81.05,71.37,81.05,71.37,81.12,71Z" transform="translate(-30.8 20.64)"/><path class="cls-3" d="M56.91,34.94a6.69,6.69,0,0,1-1.73-.76,1,1,0,0,1-.56-.89.31.31,0,0,0-.11-.21c-.48.18-.51.25-.28.67a6,6,0,0,0,1.22,1.44,12,12,0,0,0,1.16.91A5.09,5.09,0,0,0,56.91,34.94Z" transform="translate(-30.8 20.64)"/><path class="cls-2" d="M58.47,51.62l-.78-1.75a18.77,18.77,0,0,0-1.47,1.7c.07.25.27.25.48.27A5.55,5.55,0,0,0,58.47,51.62Z" transform="translate(-30.8 20.64)"/><path class="cls-2" d="M59.42,61l.79-1.77-2.46.66A2.92,2.92,0,0,0,59.42,61Z" transform="translate(-30.8 20.64)"/><path class="cls-3" d="M56.06,43.69a8.43,8.43,0,0,1-2-.76,1,1,0,0,1-.45-.57c-.79.42-.51.53-.06.87a7.44,7.44,0,0,0,2.56,1.2A1.16,1.16,0,0,0,56.06,43.69Z" transform="translate(-30.8 20.64)"/><path class="cls-5" d="M82.52,73.48a1.18,1.18,0,0,0,.53-1.71,1.36,1.36,0,0,0-1-.71c.07.53,0,1.07.13,1.59A1.63,1.63,0,0,0,82.52,73.48Z" transform="translate(-30.8 20.64)"/><path class="cls-3" d="M56.82,65.92a.78.78,0,0,0,.23-.38,8.43,8.43,0,0,0-2.34-.18,9.84,9.84,0,0,0,1.06,2,.79.79,0,0,0,.34-.39,4.22,4.22,0,0,1-.52-.6c-.09-.11-.18-.21-.12-.35s.22-.16.37-.18C56.18,65.78,56.49,65.92,56.82,65.92Z" transform="translate(-30.8 20.64)"/><path class="cls-3" d="M58.47,51.62a5.55,5.55,0,0,1-1.77.22c-.21,0-.41,0-.48-.27a2.37,2.37,0,0,0-.54.65,15.87,15.87,0,0,0,3.15.14A2.13,2.13,0,0,0,58.47,51.62Z" transform="translate(-30.8 20.64)"/><path class="cls-3" d="M59.42,61a2.92,2.92,0,0,1-1.67-1.11c-.18,0-.32.14-.52.14A10.49,10.49,0,0,0,59,62,3.28,3.28,0,0,0,59.42,61Z" transform="translate(-30.8 20.64)"/><path class="cls-3" d="M51.71,71a.86.86,0,0,0,.41-.31l-2.48-.49c.09.66.35,1.21.48,1.79a.6.6,0,0,0,.43-.22c-.13-.21-.27-.41-.38-.63s-.06-.49.3-.42A7.42,7.42,0,0,1,51.71,71Z" transform="translate(-30.8 20.64)"/><path class="cls-3" d="M44.58,74.37a.61.61,0,0,0,.33-.06,6.48,6.48,0,0,0-1-.66c-.32-.24-.65-.45-1-.71l-.15,1.8a.4.4,0,0,0,.42,0,4.73,4.73,0,0,1,0-.65c0-.3.22-.4.49-.26A3.44,3.44,0,0,1,44.58,74.37Z" transform="translate(-30.8 20.64)"/><path class="cls-2" d="M51.71,71a7.42,7.42,0,0,0-1.24-.28c-.36-.07-.46.09-.3.42s.25.42.38.63A5.32,5.32,0,0,0,51.71,71Z" transform="translate(-30.8 20.64)"/><path class="cls-2" d="M56.82,65.92c-.33,0-.64-.14-1-.11-.15,0-.31,0-.37.18s0,.24.12.35a4.22,4.22,0,0,0,.52.6A5.48,5.48,0,0,0,56.82,65.92Z" transform="translate(-30.8 20.64)"/><path class="cls-2" d="M44.58,74.37a3.44,3.44,0,0,0-.92-.59c-.27-.14-.45,0-.49.26a4.73,4.73,0,0,0,0,.65A5,5,0,0,0,44.58,74.37Z" transform="translate(-30.8 20.64)"/><path class="cls-3" d="M63.19,83.94a2.27,2.27,0,0,0,.72-.16,1.65,1.65,0,0,1,.62-.14A.93.93,0,0,0,64.6,83Z" transform="translate(-30.8 20.64)"/><path class="cls-1" d="M72.56,75.55c0,.1,0,.19.11.23A.22.22,0,0,0,72.56,75.55Z" transform="translate(-30.8 20.64)"/><path class="cls-1" d="M76.79,66.3a.13.13,0,0,0,.09.13A.14.14,0,0,0,76.79,66.3Z" transform="translate(-30.8 20.64)"/><path class="cls-4" d="M71.52,40.21c.06.15.13.3.19.46a2.69,2.69,0,0,0,2,1.67,2.24,2.24,0,0,0,2.07-1.09,4.08,4.08,0,0,0,.63-1.63,10.1,10.1,0,0,0,0-3.2,8.38,8.38,0,0,0-.74-2.5,2.12,2.12,0,0,0-2.24-1.44,2.43,2.43,0,0,0-1.71,1.36c-.06.28-.15.55-.19.83A14.54,14.54,0,0,0,71.52,40.21Z" transform="translate(-30.8 20.64)"/><path class="cls-1" d="M73.36,32.48a2.12,2.12,0,0,1,2.24,1.44,8.38,8.38,0,0,1,.74,2.5,10.1,10.1,0,0,1,0,3.2,4.08,4.08,0,0,1-.63,1.63,2.24,2.24,0,0,1-2.07,1.09.67.67,0,0,0,.49.31,2.31,2.31,0,0,0,2.43-.92,5.92,5.92,0,0,0,1.09-3.42,7.69,7.69,0,0,0-.78-3.69,4.07,4.07,0,0,0-2.11-2.19A1.53,1.53,0,0,0,73.36,32.48Z" transform="translate(-30.8 20.64)"/><path class="cls-6" d="M71.52,40.21a14.54,14.54,0,0,1-.06-5.54c0-.28.13-.55.19-.83a4.88,4.88,0,0,0-1.3,4.43A3.51,3.51,0,0,0,71.52,40.21Z" transform="translate(-30.8 20.64)"/><path class="cls-4" d="M94.16,35.77c0,.21.07.4.13.57a1.08,1.08,0,0,0,.93.8,1.06,1.06,0,0,0,1.08-.59,1.75,1.75,0,0,1,.44-.58.52.52,0,0,0,.09-.69,1.43,1.43,0,0,0-1.22-.84,1.77,1.77,0,0,0-1.21.24,3.26,3.26,0,0,0-1.22,1.43,1.1,1.1,0,0,0-.09.54c0,.12,0,.24.15.29s.22,0,.29-.15l.24-.43A2.73,2.73,0,0,1,94.16,35.77Z" transform="translate(-30.8 20.64)"/><path class="cls-7" d="M110.48,56.14h4.73a6.7,6.7,0,0,1,3,.65,4.74,4.74,0,0,1,2,1.84,5.76,5.76,0,0,1,0,5.54,4.76,4.76,0,0,1-2,1.85,6.7,6.7,0,0,1-3,.64h-4.73Zm4.63,7.32a2.25,2.25,0,0,0,1.61-.55,2.26,2.26,0,0,0,0-3,2.29,2.29,0,0,0-1.61-.55h-1v4.12Z" transform="translate(-30.8 20.64)"/><path class="cls-7" d="M123.87,66.35a4,4,0,0,1-1.64-1.49A4.14,4.14,0,0,1,123.89,59a5.35,5.35,0,0,1,2.42-.53,5.05,5.05,0,0,1,2.56.61,3.8,3.8,0,0,1,1.62,1.74A5.33,5.33,0,0,1,131,63.4h-6a1.36,1.36,0,0,0,.51.81,1.5,1.5,0,0,0,.9.27,2,2,0,0,0,.7-.12,1.34,1.34,0,0,0,.52-.36h3.22a4.16,4.16,0,0,1-1.69,2.13,5.69,5.69,0,0,1-5.26.22Zm3.87-4.53a1.42,1.42,0,0,0-.5-.74,1.36,1.36,0,0,0-.87-.26,1.46,1.46,0,0,0-.87.25,1.37,1.37,0,0,0-.51.75Z" transform="translate(-30.8 20.64)"/><path class="cls-7" d="M130.92,58.65h3.7l.72,2.57.48,1.81h.05l.48-1.81.72-2.57h3.68l-3.11,8H134Z" transform="translate(-30.8 20.64)"/><path class="cls-7" d="M141.51,66.18a2.48,2.48,0,0,1-.08-3.61,2.82,2.82,0,0,1,2-.67H146v-.48a.63.63,0,0,0-.25-.51,1.06,1.06,0,0,0-1.21,0,.66.66,0,0,0-.27.48h-3.15a3,3,0,0,1,1.21-2.19,4.74,4.74,0,0,1,2.81-.74,4.62,4.62,0,0,1,3.12,1,3.46,3.46,0,0,1,1.08,2.75v4.52h-2.45l-.35-.87a3.36,3.36,0,0,1-1.22.8,4.42,4.42,0,0,1-1.57.27A3.34,3.34,0,0,1,141.51,66.18Zm2.69-1.61a1,1,0,0,0,.61.17,1.25,1.25,0,0,0,.88-.32,1.11,1.11,0,0,0,.33-.84v-.1h-1.21a.94.94,0,0,0-.61.17.55.55,0,0,0-.23.46A.56.56,0,0,0,144.2,64.57Z" transform="translate(-30.8 20.64)"/><path class="cls-7" d="M151.63,66a3.5,3.5,0,0,1-.89-2.54V58.65h3.42V63a1.29,1.29,0,0,0,.24.85,1,1,0,0,0,1.4,0,1.31,1.31,0,0,0,.26-.87v-4.3h3.43v8H157l-.34-.84a3.07,3.07,0,0,1-1.14.79,3.77,3.77,0,0,1-1.49.28A3.23,3.23,0,0,1,151.63,66Z" transform="translate(-30.8 20.64)"/><path class="cls-7" d="M161.75,66.12A2.44,2.44,0,0,1,160.69,64H164a.72.72,0,0,0,.19.5.66.66,0,0,0,.49.19.65.65,0,0,0,.41-.12.43.43,0,0,0,.15-.34.52.52,0,0,0-.33-.45,3.85,3.85,0,0,0-1.1-.27,4.6,4.6,0,0,1-2.31-.85,2.08,2.08,0,0,1-.74-1.68,2.17,2.17,0,0,1,1-1.91,5.13,5.13,0,0,1,2.85-.66,4.69,4.69,0,0,1,2.77.71,2.58,2.58,0,0,1,1.05,2.07h-3.19a.66.66,0,0,0-.19-.48.72.72,0,0,0-.5-.17.68.68,0,0,0-.4.12A.46.46,0,0,0,164,61a.45.45,0,0,0,.32.42,4.92,4.92,0,0,0,1.18.28,4.64,4.64,0,0,1,2.3.86,2.08,2.08,0,0,1,.75,1.68,2.19,2.19,0,0,1-1,1.93,5.11,5.11,0,0,1-2.88.69A4.8,4.8,0,0,1,161.75,66.12Z" transform="translate(-30.8 20.64)"/><path class="cls-7" d="M171.57,66.36a4,4,0,0,1-1.68-1.48,4.39,4.39,0,0,1,0-4.43A4,4,0,0,1,171.57,59a6.18,6.18,0,0,1,5,0,3.89,3.89,0,0,1,1.67,1.48,4.39,4.39,0,0,1,0,4.43,3.89,3.89,0,0,1-1.67,1.48,6.18,6.18,0,0,1-5,0ZM173,63.71a1.45,1.45,0,0,0,1,.4,1.43,1.43,0,0,0,1-.4,1.41,1.41,0,0,0,.41-1.05,1.42,1.42,0,0,0-.41-1,1.39,1.39,0,0,0-1-.4,1.41,1.41,0,0,0-1,.4,1.42,1.42,0,0,0-.41,1A1.41,1.41,0,0,0,173,63.71Z" transform="translate(-30.8 20.64)"/><path class="cls-7" d="M180.06,58.65h2.44l.38,1a2.3,2.3,0,0,1,1-.75,3.63,3.63,0,0,1,1.35-.23h1V61.7h-1a1.66,1.66,0,0,0-1.27.42,1.87,1.87,0,0,0-.39,1.3v3.24h-3.43Z" transform="translate(-30.8 20.64)"/><path class="cls-7" d="M188.22,66a3.5,3.5,0,0,1-.9-2.54V58.65h3.43V63a1.29,1.29,0,0,0,.24.85.85.85,0,0,0,.69.28.89.89,0,0,0,.71-.3,1.31,1.31,0,0,0,.26-.87v-4.3h3.42v8h-2.45l-.33-.84a3.07,3.07,0,0,1-1.14.79,3.8,3.8,0,0,1-1.49.28A3.22,3.22,0,0,1,188.22,66Z" transform="translate(-30.8 20.64)"/><path class="cls-7" d="M198.34,66.12A2.44,2.44,0,0,1,197.28,64h3.3a.68.68,0,0,0,.19.5.66.66,0,0,0,.49.19.66.66,0,0,0,.41-.12.43.43,0,0,0,.15-.34.54.54,0,0,0-.34-.45,3.77,3.77,0,0,0-1.09-.27,4.57,4.57,0,0,1-2.31-.85,2,2,0,0,1-.74-1.68,2.15,2.15,0,0,1,1-1.91,5.13,5.13,0,0,1,2.85-.66,4.65,4.65,0,0,1,2.76.71A2.56,2.56,0,0,1,205,61.22H201.8a.67.67,0,0,0-.2-.48.69.69,0,0,0-.49-.17.68.68,0,0,0-.4.12.46.46,0,0,0,.17.76,5,5,0,0,0,1.19.28,4.6,4.6,0,0,1,2.29.86,2.06,2.06,0,0,1,.76,1.68,2.19,2.19,0,0,1-1,1.93,5.12,5.12,0,0,1-2.89.69A4.79,4.79,0,0,1,198.34,66.12Z" transform="translate(-30.8 20.64)"/><path class="cls-7" d="M116.48,27l-.49-.32a.35.35,0,0,1-.15-.5.36.36,0,0,1,.52-.08h0l.16.11.67.43a1.53,1.53,0,0,0,.21.14l1.21.78a.34.34,0,0,1,0,.63l-2.3,1.49a.36.36,0,0,1-.47-.05.35.35,0,0,1,0-.44.27.27,0,0,1,.12-.09l1.82-1.18s0,0,.06,0c-.24-.13-.45-.32-.71-.43a1.31,1.31,0,0,1-.28-.2A2.59,2.59,0,0,0,116.48,27Z" transform="translate(-30.8 20.64)"/><path class="cls-7" d="M110.66,27.86l1.71,1.1.21.13a.35.35,0,0,1,.11.48.34.34,0,0,1-.48.1l-1.75-1.12-.58-.38a.35.35,0,0,1,0-.63l2.18-1.4.14-.09a.35.35,0,0,1,.48.1.33.33,0,0,1-.11.47l-.77.5Z" transform="translate(-30.8 20.64)"/><path class="cls-7" d="M113.92,29.82a.36.36,0,0,1-.45.23.73.73,0,0,1-.18-.14.5.5,0,0,1,0-.36c.45-1.21.89-2.42,1.33-3.64a.35.35,0,0,1,.33-.26.35.35,0,0,1,.31.49c-.16.46-.33.92-.5,1.38L114,29.59a.06.06,0,0,0,0,0A.73.73,0,0,0,113.92,29.82Z" transform="translate(-30.8 20.64)"/><path class="cls-7" d="M107.73,35.09c-.23-.1-.41-.19-.6-.26a4.21,4.21,0,0,1-2.84-4.06c-.05-1.68,0-3.35,0-5a4.29,4.29,0,0,1,4.5-4.4q5.5,0,11,0a4.27,4.27,0,0,1,4.44,4.28c.06,1.76.07,3.53,0,5.29a4.22,4.22,0,0,1-4.36,4.15c-2.58,0-5.17,0-7.75,0a1.82,1.82,0,0,0-1.53.64c-.86,1-1.77,1.89-2.68,2.81a2.15,2.15,0,0,1-.72.31A2.31,2.31,0,0,1,107,38C107.23,37,107.49,36.08,107.73,35.09Zm.65,1.24.16.07c.46-.48,1-.94,1.37-1.45a2,2,0,0,1,1.75-.76c2.73.05,5.46,0,8.19,0a3.35,3.35,0,0,0,3.49-3.33c.06-1.76.06-3.53,0-5.29a3.36,3.36,0,0,0-3.46-3.38q-5.62,0-11.27,0a3.36,3.36,0,0,0-3.44,3.39c-.05,1.73,0,3.47,0,5.2a3.14,3.14,0,0,0,1.53,2.81,13.14,13.14,0,0,0,2.1.81Z" transform="translate(-30.8 20.64)"/><path class="cls-7" d="M99.58,18.41l-.6-.26a4.23,4.23,0,0,1-2.85-4.06c0-1.67,0-3.35,0-5a4.28,4.28,0,0,1,4.49-4.4c3.67,0,7.35,0,11,0a4.28,4.28,0,0,1,4.44,4.28c.06,1.76.06,3.53,0,5.29a4.25,4.25,0,0,1-4.36,4.16c-2.59,0-5.17,0-7.76,0a1.8,1.8,0,0,0-1.53.63c-.85,1-1.76,1.89-2.68,2.81a2.43,2.43,0,0,1-.71.32,2.2,2.2,0,0,1-.16-.81C99.08,20.36,99.33,19.4,99.58,18.41Zm.65,1.24.16.07c.46-.48,1-.93,1.36-1.45a2,2,0,0,1,1.75-.76c2.73,0,5.46,0,8.19,0a3.35,3.35,0,0,0,3.49-3.33c.06-1.76.06-3.53,0-5.29a3.36,3.36,0,0,0-3.45-3.38q-5.64,0-11.28,0A3.37,3.37,0,0,0,97,8.92c0,1.74,0,3.47,0,5.2a3.13,3.13,0,0,0,1.54,2.81,12.46,12.46,0,0,0,2.09.81Z" transform="translate(-30.8 20.64)"/><text class="cls-8" transform="translate(69.2 34.06)">HTM<tspan class="cls-9" x="10.2" y="0">L</tspan></text><path class="cls-7" d="M89.11,18.26a2.4,2.4,0,0,1-.15.81,2.38,2.38,0,0,1-.72-.32c-.91-.91-1.82-1.84-2.68-2.81A1.78,1.78,0,0,0,84,15.31c-2.58,0-5.17,0-7.75,0a4.23,4.23,0,0,1-4.36-4.16c-.07-1.76-.06-3.53,0-5.29a4.27,4.27,0,0,1,4.44-4.28c3.67,0,7.34,0,11,0A4.29,4.29,0,0,1,91.87,6c0,1.67,0,3.35,0,5A4.2,4.2,0,0,1,89,15.08l-.6.26C88.66,16.33,88.92,17.29,89.11,18.26Zm-1.76-3.59a12.25,12.25,0,0,0,2.1-.81A3.13,3.13,0,0,0,91,11.05c0-1.73,0-3.46,0-5.19a3.37,3.37,0,0,0-3.44-3.4q-5.64,0-11.27,0A3.38,3.38,0,0,0,72.8,5.84c0,1.77,0,3.53,0,5.29a3.35,3.35,0,0,0,3.49,3.33c2.73,0,5.46,0,8.19,0a1.93,1.93,0,0,1,1.75.75c.41.52.91,1,1.37,1.45l.16-.07Z" transform="translate(-30.8 20.64)"/><text class="cls-8" transform="translate(45.91 31)">CS<tspan class="cls-10" x="6.1" y="0">S</tspan></text></svg>